<svg width="24" height="22" viewBox="0 0 24 22" fill="none" xmlns="http://www.w3.org/2000/svg">
<path d="M7.19238 0.571289C8.83099 0.570957 10.4091 1.18404 11.6143 2.28711L12 2.63965L12.3857 2.28711C13.5907 1.18418 15.1692 0.571108 16.8076 0.571289C17.5661 0.571973 18.3183 0.703019 19.0303 0.958008L19.333 1.0752C20.0327 1.36535 20.6757 1.77335 21.2344 2.28027L21.4688 2.50391C24.0004 5.0334 24.0772 8.92441 21.709 11.5225L21.4727 11.7695L12 21.1934L2.52832 11.7695L2.29102 11.5225C-0.000863563 9.00787 -0.00256064 5.28255 2.29004 2.75684L2.52637 2.50879L2.52734 2.50781C3.06149 1.97177 3.68447 1.53221 4.36816 1.20801L4.66504 1.07617C5.36548 0.785377 6.11067 0.618032 6.86719 0.580078L7.19238 0.571289Z" fill="white"/>
<path d="M7.19238 0.571289C8.83099 0.570957 10.4091 1.18404 11.6143 2.28711L12 2.63965L12.3857 2.28711C13.5907 1.18418 15.1692 0.571108 16.8076 0.571289C17.5661 0.571973 18.3183 0.703019 19.0303 0.958008L19.333 1.0752C20.0327 1.36535 20.6757 1.77335 21.2344 2.28027L21.4688 2.50391C24.0004 5.0334 24.0772 8.92441 21.709 11.5225L21.4727 11.7695L12 21.1934L2.52832 11.7695L2.29102 11.5225C-0.000863563 9.00787 -0.00256064 5.28255 2.29004 2.75684L2.52637 2.50879L2.52734 2.50781C3.06149 1.97177 3.68447 1.53221 4.36816 1.20801L4.66504 1.07617C5.36548 0.785377 6.11067 0.618032 6.86719 0.580078L7.19238 0.571289Z" stroke="white" stroke-width="1.14286"/>
<path d="M7.19238 0.571289C8.83099 0.570957 10.4091 1.18404 11.6143 2.28711L12 2.63965L12.3857 2.28711C13.5907 1.18418 15.1692 0.571108 16.8076 0.571289C17.5661 0.571973 18.3183 0.703019 19.0303 0.958008L19.333 1.0752C20.0327 1.36535 20.6757 1.77335 21.2344 2.28027L21.4688 2.50391C24.0004 5.0334 24.0772 8.92441 21.709 11.5225L21.4727 11.7695L12 21.1934L2.52832 11.7695L2.29102 11.5225C-0.000863563 9.00787 -0.00256064 5.28255 2.29004 2.75684L2.52637 2.50879L2.52734 2.50781C3.06149 1.97177 3.68447 1.53221 4.36816 1.20801L4.66504 1.07617C5.36548 0.785377 6.11067 0.618032 6.86719 0.580078L7.19238 0.571289Z" stroke="#07C4F5" stroke-width="1.14286"/>
</svg>
