<svg width="24" height="24" viewBox="0 0 24 24" fill="none" xmlns="http://www.w3.org/2000/svg">
<path d="M2.66699 8.5H21.3337L20.3595 19.2112C20.3068 19.7909 20.0393 20.33 19.6096 20.7226C19.1798 21.1153 18.6188 21.3331 18.0367 21.3333H5.96399C5.38187 21.3331 4.82086 21.1153 4.39109 20.7226C3.96132 20.33 3.69384 19.7909 3.64116 19.2112L2.66699 8.5Z" fill="white" stroke="white" stroke-linejoin="round"/>
<path d="M7.33398 10.8337V7.33366C7.33398 6.09598 7.82565 4.909 8.70082 4.03383C9.57599 3.15866 10.763 2.66699 12.0007 2.66699C13.2383 2.66699 14.4253 3.15866 15.3005 4.03383C16.1757 4.909 16.6673 6.09598 16.6673 7.33366V10.8337" stroke="white" stroke-linecap="round"/>
</svg>
