<svg width="22" height="20" viewBox="0 0 22 20" fill="none" xmlns="http://www.w3.org/2000/svg">
<path d="M15.3486 0.571289C16.0278 0.571905 16.7011 0.690419 17.3389 0.919922L17.6104 1.02441C18.2373 1.28569 18.8137 1.65363 19.3145 2.11035L19.5244 2.31152L19.5254 2.3125C21.7957 4.59273 21.864 8.09981 19.7402 10.4414L19.5283 10.6641L11 19.1914L2.47266 10.6641L2.25977 10.4414C0.204502 8.17497 0.202891 4.81674 2.25879 2.54004L2.47168 2.31641L2.47266 2.31543C2.95145 1.83254 3.5095 1.43645 4.12207 1.14453L4.3877 1.02637C5.10485 0.727112 5.87428 0.572073 6.65137 0.571289C8.11898 0.570947 9.5332 1.12258 10.6133 2.11621L11 2.47168L11.3877 2.11621C12.4676 1.12276 13.8813 0.571086 15.3486 0.571289Z" stroke="white" stroke-width="1.14286"/>
</svg>
