<svg width="210" height="60" viewBox="0 0 210 60" fill="none" xmlns="http://www.w3.org/2000/svg">
<g clip-path="url(#clip0_1150_11552)">
<path d="M179.975 0H30.0251C13.4621 0 0.0351562 13.4269 0.0351562 29.9899V30.0101C0.0351562 46.5731 13.4621 60 30.0251 60H179.975C196.538 60 209.965 46.5731 209.965 30.0101V29.9899C209.965 13.4269 196.538 0 179.975 0Z" fill="#CBF401"/>
<path d="M182.879 30.012C182.879 37.4338 176.849 43.4641 169.366 43.4641C161.884 43.4641 155.914 37.4338 155.914 30.012C155.914 22.5901 161.944 16.5599 169.366 16.5599C176.788 16.5599 182.879 22.5901 182.879 30.012ZM179.41 30.012C179.41 24.4658 174.933 19.7666 169.366 19.7666C163.8 19.7666 159.322 24.4658 159.322 30.012C159.322 35.5582 163.86 40.2574 169.366 40.2574C174.872 40.2574 179.41 35.5582 179.41 30.012Z" fill="black"/>
<path d="M86.516 18.8354V39.064C86.516 42.6942 85.2454 45.78 82.6235 48.4018C80.4857 50.5396 77.9849 51.7094 75.1008 52.1329C74.1328 52.2942 72.8622 51.911 72.7008 50.58C72.5395 48.8657 73.8706 48.4421 74.7781 48.4018C76.7546 48.301 78.6302 47.3934 80.1227 45.901C81.716 44.3077 82.7849 42.8556 83.1075 41.6253C83.4302 40.4556 83.1076 38.5396 82.8857 38.8421C80.3849 41.9279 76.4319 43.4405 72.8017 43.4405C64.7344 43.4405 59.2891 38.3178 59.2891 30.0489C59.2891 21.78 65.3798 16.5363 72.8017 16.5363C76.4319 16.5363 80.0017 17.9682 82.684 20.8119C82.7445 20.8724 83.1075 21.0741 83.1075 20.3279V18.8354C83.1075 17.9279 83.8538 17.1816 84.7613 17.1816H84.9227C85.7697 17.1816 86.516 17.9279 86.516 18.8354ZM83.1075 30.0489C83.1075 24.4421 78.4084 19.743 72.8017 19.743C67.1949 19.743 62.7781 24.7043 62.7781 30.0489C62.7781 36.1396 66.8319 40.2337 72.8017 40.2337C78.4084 40.2337 83.1075 35.5951 83.1075 30.0489Z" fill="black"/>
<path d="M150.691 41.1613C150.691 42.0689 149.945 42.7546 149.098 42.7546H148.876C147.968 42.7546 147.222 42.0689 147.222 41.1613V39.1243C147.222 38.963 147.121 38.6 146.839 38.9025C144.378 41.726 141.03 43.4403 137.44 43.4403C133.85 43.4403 130.563 42.1092 127.941 39.4873C125.279 36.8252 123.988 33.6789 123.988 29.9277C123.988 26.1764 125.259 23.0504 127.941 20.4285C130.563 17.7663 133.75 16.5361 137.44 16.5361C141.131 16.5361 144.056 17.7663 146.617 20.8521C146.778 21.1142 147.202 21.1142 147.202 20.6907V9.39659C147.202 8.54953 147.948 7.80331 148.856 7.80331H149.077C149.924 7.80331 150.671 8.54953 150.671 9.39659V41.1411L150.691 41.1613ZM137.461 19.763C131.914 19.763 127.417 24.4016 127.417 29.9479C127.417 35.4941 131.894 40.2537 137.461 40.2537C143.027 40.2537 147.504 35.4941 147.504 29.9479C147.504 24.4016 143.027 19.763 137.461 19.763Z" fill="black"/>
<path d="M105.333 43.5815H105.273C97.8508 43.5815 91.7802 37.5512 91.7197 30.1495C91.7197 29.2218 92.4458 28.4756 93.3735 28.4756C94.2811 28.4756 95.0273 29.2218 95.0475 30.1294C95.0878 35.7159 99.6861 40.2537 105.273 40.2537C106.2 40.2537 106.967 41 106.967 41.9277C106.967 42.8554 106.261 43.6016 105.333 43.6016V43.5815Z" fill="#07C4F5"/>
<path d="M117.151 31.6632C116.223 31.6632 115.497 30.917 115.477 30.0095C115.477 24.3826 110.879 19.8246 105.252 19.8246C104.344 19.8246 103.518 19.0985 103.518 18.1708C103.518 17.2431 104.163 16.517 105.091 16.4969C105.111 16.4969 105.272 16.4969 105.292 16.4969C112.714 16.4969 118.785 22.5674 118.805 30.0095C118.805 30.9372 118.059 31.6834 117.151 31.6834V31.6632Z" fill="#07C4F5"/>
<path d="M52.4118 17.1823H52.311C51.4034 17.1823 50.6572 17.9285 50.6572 18.836V30.0091C50.6572 35.5554 46.1194 40.2545 40.5732 40.2545C35.027 40.2545 30.59 35.5554 30.59 30.0091V18.836C30.59 17.9285 29.8438 17.1823 28.9362 17.1823H28.7749C27.8673 17.1823 27.1211 17.9285 27.1211 18.836V30.0091C27.1211 37.431 33.1513 43.4612 40.5732 43.4612C47.995 43.4612 54.0858 37.431 54.0858 30.0091V18.836C54.0858 17.9285 53.3396 17.1823 52.432 17.1823H52.4118Z" fill="black"/>
</g>
<defs>
<clipPath id="clip0_1150_11552">
<rect width="209.929" height="60" fill="white" transform="translate(0.0351562)"/>
</clipPath>
</defs>
</svg>
