<svg id="Слой_1" data-name="Слой 1" xmlns="http://www.w3.org/2000/svg" xmlns:xlink="http://www.w3.org/1999/xlink" viewBox="0 0 315 371.02"><defs><style>.cls-1{fill:none;}.cls-2{fill:#1a1241;}.cls-3{fill:#47b400;}.cls-4{fill:#baff29;}.cls-5{clip-path:url(#clip-path);}.cls-6{clip-path:url(#clip-path-2);}</style><clipPath id="clip-path" transform="translate(0 56.02)"><path class="cls-1" d="M153.57,91.55l-85.28-.89L49.06,181.29c0,46.53,38.86,84.26,86.8,84.26h33.2c47.94,0,86.81-37.72,88.88-111.53l-2.15-38.83c-2.07-12.47-8.25,63.32-46.41,54.46C202.86,168.13,160.55,91.55,153.57,91.55Z"/></clipPath><clipPath id="clip-path-2" transform="translate(0 56.02)"><rect class="cls-1" x="43.95" y="65.14" width="237.62" height="197.19"/></clipPath></defs><rect class="cls-2" y="56.02" width="315" height="315"/><path class="cls-3" d="M90.44,92.68a18.28,18.28,0,0,1,.27-3v.6C90.63,91.15,90.55,91.94,90.44,92.68Z" transform="translate(0 56.02)"/><path class="cls-4" d="M106.51,93.55h0m-16.17-24c-8.85,0-15.9,10.27-15.9,23.35s7,24,15.9,24,15.51-12.55,16.31-25.6c.79-12.71-7.47-21.77-16.31-21.77Z" transform="translate(0 56.02)"/><path class="cls-4" d="M254.91,105.85c-5-34.3-28.82-59.46-53-56.1S162,83.69,167.07,118s28.79,59.51,53.06,56.1S260,140.2,254.91,105.85Zm-35.82,41.22c-9.42,1.47-23-24.89-25.39-40.06s3.37-28.65,12.78-30.12,19,9.64,21.34,24.81.68,43.91-8.73,45.37Z" transform="translate(0 56.02)"/><g class="cls-5"><g class="cls-6"><path class="cls-4" d="M167-24c16.89,0,30.41,21.74,35.44,31.09C216.12,32.6,224,68.82,224,106.51c0,36.74-7.51,69.29-21.14,91.64-7.33,12-19.65,26.34-36.73,26.34-18.33,0-31.64-16.9-37.94-27-14.17-22.66-22-55.22-22-91.67,0-36.94,8.4-72.77,23-98.32C140.48-12.22,154.58-24,166.9-24m0-32c-51,0-92.77,73-92.77,161.82s41,150.65,91.92,150.65,89.87-61.14,89.87-150S217.87-56,166.92-56Z" transform="translate(0 56.02)"/></g></g></svg>