<?xml version="1.0" encoding="utf-8"?>
<!-- Generator: Adobe Illustrator 25.4.1, SVG Export Plug-In . SVG Version: 6.00 Build 0)  -->
<svg version="1.1" id="Слой_1" xmlns="http://www.w3.org/2000/svg" xmlns:xlink="http://www.w3.org/1999/xlink" x="0px" y="0px"
	 viewBox="0 0 2218.4 3157.1" style="enable-background:new 0 0 2218.4 3157.1;" xml:space="preserve">
<style type="text/css">
	.st0{fill:#F4F7EA;}
	.st1{clip-path:url(#SVGID_00000089575671173122039680000009322874414041577659_);}
	.st2{fill:#010101;}
	.st3{fill:#211B3F;}
	.st4{fill:#47B400;}
	.st5{fill:#BAFF29;}
	.st6{clip-path:url(#SVGID_00000100376966434067605810000014454416462783411076_);}
	.st7{clip-path:url(#SVGID_00000088100257900720214310000011335543217581336238_);}
</style>
<rect y="514" class="st0" width="2218.4" height="1584.7"/>
<g>
	<g>
		<defs>
			<rect id="SVGID_1_" x="255.7" y="638.4" width="1707.1" height="1336"/>
		</defs>
		<clipPath id="SVGID_00000077326354540477248340000013938636651460455046_">
			<use xlink:href="#SVGID_1_"  style="overflow:visible;"/>
		</clipPath>
		<g style="clip-path:url(#SVGID_00000077326354540477248340000013938636651460455046_);">
		</g>
	</g>
	<path class="st2" d="M1520.3,1292.4v41.1l-7-6.7c-6-5.3-12.8-9.7-20.1-13c-9.7-4.9-20.6-7-31.4-6.1c-19.7-0.9-38.9,6.8-52.6,21
		c-32.9,32.9-33.5,97.6-1.5,132.4c17.4,18.3,42.6,27,67.6,23.3c13.7-1.7,26.4-8.1,35.9-18.2l9.1-8.9v24.7h43.2v-229l-21.6-0.7
		l-21.6-0.7V1292.4z M1492.1,1348.9c36.9,15.6,37.9,76.3,1.5,93.4c-32.7,15.2-63.9-7.8-63.9-47c0-23.4,9.9-40.1,28.4-47.4
		C1469.2,1344.8,1481.1,1345.1,1492.1,1348.9z"/>
	<path class="st3" d="M1520.3,1292.4v41.1l-7-6.7c-6-5.3-12.8-9.7-20.1-13c-9.7-4.9-20.6-7-31.4-6.1c-19.7-0.9-38.9,6.8-52.6,21
		c-32.9,32.9-33.5,97.6-1.5,132.4c17.4,18.3,42.6,27,67.6,23.3c13.7-1.7,26.4-8.1,35.9-18.2l9.1-8.9v24.7h43.2v-229l-21.6-0.7
		l-21.6-0.7V1292.4z M1492.1,1348.9c36.9,15.6,37.9,76.3,1.5,93.4c-32.7,15.2-63.9-7.8-63.9-47c0-23.4,9.9-40.1,28.4-47.4
		C1469.2,1344.8,1481.1,1345.1,1492.1,1348.9z"/>
	<path class="st2" d="M1026.9,1311.3c-20.6,7.9-37.1,23.9-45.7,44.3c-7.1,22.5-8.2,46.6-3.2,69.7c9.9,36.9,38.7,59.7,74.9,59.7
		c17.8,0.4,35-6.1,48.2-18l8.3-7.4l-0.9,22.7c-0.7,21.2-1.1,23.3-6.9,30.9c-17.6,20-48.1,22-68.2,4.4c-1.1-0.9-2.1-1.9-3-2.9
		c-2.5-2.6-4.4-5.7-5.7-9.1c-7-1.9-14.4-2.5-21.7-1.9c-7.3-0.5-14.6,0-21.7,1.7c0.8,4.6,2,9.1,3.5,13.4c6.7,17.7,20.2,32,37.4,39.8
		c27.4,11.5,58.3,12,86,1.3c15.4-8,28.2-20.3,36.8-35.3c8.4-17.5,9.9-37.9,9.3-130l-0.7-84.4h-43l-0.6,10.2c0,3.5-0.5,7-1.5,10.4
		c-2.5-1.6-4.9-3.6-6.9-5.7C1083.9,1308.4,1053,1302.8,1026.9,1311.3z M1089,1353c25.3,17.6,27.2,62.5,3.7,83.2
		c-12.4,11.2-30.3,13.9-45.4,6.9c-36.9-16.8-39-75.7-2.9-94.1c14.8-5.6,31.3-4.1,44.9,4H1089z"/>
	<path class="st3" d="M1026.9,1311.3c-20.6,7.9-37.1,23.9-45.7,44.3c-7.1,22.5-8.2,46.6-3.2,69.7c9.9,36.9,38.7,59.7,74.9,59.7
		c17.8,0.4,35-6.1,48.2-18l8.3-7.4l-0.9,22.7c-0.7,21.2-1.1,23.3-6.9,30.9c-17.6,20-48.1,22-68.2,4.4c-1.1-0.9-2.1-1.9-3-2.9
		c-2.5-2.6-4.4-5.7-5.7-9.1c-7-1.9-14.4-2.5-21.7-1.9c-7.3-0.5-14.6,0-21.7,1.7c0.8,4.6,2,9.1,3.5,13.4c6.7,17.7,20.2,32,37.4,39.8
		c27.4,11.5,58.3,12,86,1.3c15.4-8,28.2-20.3,36.8-35.3c8.4-17.5,9.9-37.9,9.3-130l-0.7-84.4h-43l-0.6,10.2c0,3.5-0.5,7-1.5,10.4
		c-2.5-1.6-4.9-3.6-6.9-5.7C1083.9,1308.4,1053,1302.8,1026.9,1311.3z M1089,1353c25.3,17.6,27.2,62.5,3.7,83.2
		c-12.4,11.2-30.3,13.9-45.4,6.9c-36.9-16.8-39-75.7-2.9-94.1c14.8-5.6,31.3-4.1,44.9,4H1089z"/>
	<path class="st2" d="M1250.9,1309.7c-16.2,4.1-30.9,12.7-42.4,24.7c-31.1,33.8-29.5,94,2.9,126.6c38,37.9,108.8,30.1,137.6-15.1
		c16-27.4,18-60.7,5.4-89.8C1336.6,1318,1294.2,1299.1,1250.9,1309.7z M1297.9,1351.9c17.1,13.5,24.7,35.8,19.2,56.9
		c-9.8,46.5-69.5,52.6-84.4,8.6c-3-13.8-3-28.2,0-42c3.9-11.4,12-21,22.5-26.8c14.1-4.3,29.3-3.1,42.6,3.5L1297.9,1351.9z"/>
	<path class="st3" d="M1250.9,1309.7c-16.2,4.1-30.9,12.7-42.4,24.7c-31.1,33.8-29.5,94,2.9,126.6c38,37.9,108.8,30.1,137.6-15.1
		c16-27.4,18-60.7,5.4-89.8C1336.6,1318,1294.2,1299.1,1250.9,1309.7z M1297.9,1351.9c17.1,13.5,24.7,35.8,19.2,56.9
		c-9.8,46.5-69.5,52.6-84.4,8.6c-3-13.8-3-28.2,0-42c3.9-11.4,12-21,22.5-26.8c14.1-4.3,29.3-3.1,42.6,3.5L1297.9,1351.9z"/>
	<path class="st2" d="M1658.8,1310.2c-24.2,6.4-44.2,23.2-54.7,45.9c-6.5,13.7-6.9,16-6.9,39.4c0,31.2,4.6,43.8,22.3,62.5
		c40.4,44.2,116.4,33.4,144.6-20.3c6.5-12.6,6.7-13.9,6.7-41.1c0-25.8-0.4-29-5.7-40.5C1745.4,1317,1700.6,1297.6,1658.8,1310.2z
		 M1705.4,1350.6c25.1,14.1,31,56.7,11.2,80.7c-17.6,21.4-52.1,20.9-67.1-0.9c-14.9-21.8-12.4-59.9,4.1-73.8
		C1668.2,1344.6,1688.4,1342.3,1705.4,1350.6z"/>
	<path class="st3" d="M1658.8,1310.2c-24.2,6.4-44.2,23.2-54.7,45.9c-6.5,13.7-6.9,16-6.9,39.4c0,31.2,4.6,43.8,22.3,62.5
		c40.4,44.2,116.4,33.4,144.6-20.3c6.5-12.6,6.7-13.9,6.7-41.1c0-25.8-0.4-29-5.7-40.5C1745.4,1317,1700.6,1297.6,1658.8,1310.2z
		 M1705.4,1350.6c25.1,14.1,31,56.7,11.2,80.7c-17.6,21.4-52.1,20.9-67.1-0.9c-14.9-21.8-12.4-59.9,4.1-73.8
		C1668.2,1344.6,1688.4,1342.3,1705.4,1350.6z"/>
	<path class="st4" d="M458.2,1158.9c0-2.8,0.3-5.7,0.8-8.5c0,0.5,0,1.1,0,1.7C458.7,1154.5,458.5,1156.8,458.2,1158.9z"/>
	<path class="st5" d="M504.3,1161.4L504.3,1161.4 M457.9,1092.6c-25.4,0-45.6,29.5-45.6,67c0,37.5,20.1,68.8,45.6,68.8
		c25.5,0,44.5-36,46.8-73.4C506.9,1118.5,483.3,1092.5,457.9,1092.6L457.9,1092.6z"/>
	<path class="st5" d="M929.8,1196.7c-14.5-98.4-82.6-170.5-152.1-160.9c-69.5,9.6-114.2,97.3-99.8,195.8
		c14.5,98.5,82.6,170.7,152.2,160.9S944.3,1295.2,929.8,1196.7z M827.1,1314.9c-27,4.2-66-71.4-72.8-114.9
		c-6.9-43.5,9.7-82.2,36.6-86.4c27-4.2,54.5,27.6,61.2,71.1C858.9,1228.3,854.1,1310.7,827.1,1314.9L827.1,1314.9z"/>
	<g>
		<defs>
			<path id="SVGID_00000124848425118338275730000007877966061414331036_" d="M639.2,1155.7l-244.6-2.6L339.5,1413
				c0,133.4,111.4,241.6,248.9,241.6h95.2c137.5,0,248.9-108.2,254.9-319.8l-6.2-111.4c-5.9-35.8-23.7,181.6-133.1,156.2
				C780.6,1375.3,659.2,1155.7,639.2,1155.7z"/>
		</defs>
		<clipPath id="SVGID_00000091694688442684528410000009706613469585977500_">
			<use xlink:href="#SVGID_00000124848425118338275730000007877966061414331036_"  style="overflow:visible;"/>
		</clipPath>
		<g style="clip-path:url(#SVGID_00000091694688442684528410000009706613469585977500_);">
			<g>
				<defs>
					<rect id="SVGID_00000021807951779760783960000007368709371483416727_" x="324.9" y="1079.9" width="681.4" height="565.5"/>
				</defs>
				<clipPath id="SVGID_00000166675574966988685320000006852610553693552036_">
					<use xlink:href="#SVGID_00000021807951779760783960000007368709371483416727_"  style="overflow:visible;"/>
				</clipPath>
				<g style="clip-path:url(#SVGID_00000166675574966988685320000006852610553693552036_);">
					<path class="st5" d="M677.6,824.4c48.4,0,87.2,62.3,101.6,89.2c39.3,73.1,61.9,177,61.9,285c0,105.4-21.5,198.7-60.6,262.8
						c-21,34.4-56.3,75.5-105.3,75.5c-52.6,0-90.7-48.5-108.8-77.4c-40.6-65-63.1-158.4-63.1-262.9c0-105.9,24.1-208.7,66-281.9
						c32.4-56.6,72.9-90.3,108.2-90.3 M677.5,732.6c-146.3,0-266,209.3-266,464s117.4,432,263.6,432s257.7-175.3,257.7-430.1
						S823.6,732.5,677.5,732.6L677.5,732.6z"/>
				</g>
			</g>
		</g>
	</g>
</g>
</svg>
